rec1_006.mot
nRows=30
nColumns=19

name rec1_006.mot
datacolumns 19
datarows 30
range 0.0000000000 0.0580007525
endheader
time	ground_force_vx	ground_force_vy	ground_force_vz	ground_force_px	ground_force_py	ground_force_pz	1_ground_force_vx	1_ground_force_vy	1_ground_force_vz	1_ground_force_px	1_ground_force_py	1_ground_force_pz	ground_torque_x	ground_torque_y	ground_torque_z	1_ground_torque_x	1_ground_torque_y	1_ground_torque_z	
        0.0000000000	        6.8282344059	      607.7635239624	      -41.7505599446	       -0.7000000000	       -0.0180000000	        0.5600000000	       -0.3252832543	        3.8136902287	        0.5887978487	       -0.7000000000	       -0.0180000000	       -0.5600000000	      278.3982384397	       15.5030698052	      632.1653596609	       -0.6311491063	        0.4516315811	        1.6807218154	
        0.0020003361	        7.3692596908	      609.8642707159	      -41.7083241441	       -0.7000000000	       -0.0180000000	        0.5600000000	       -0.3300680977	        3.8344402642	        0.5807536253	       -0.7000000000	       -0.0180000000	       -0.5600000000	      279.4216051055	       15.2812494924	      633.4414417772	       -0.6472029543	        0.4547899389	        1.7406080857	
        0.0040000324	        7.9115841970	      612.0561029151	      -41.6784050971	       -0.7000000000	       -0.0180000000	        0.5600000000	       -0.3337515558	        3.8561132714	        0.5732296870	       -0.7000000000	       -0.0180000000	       -0.5600000000	      280.4859081973	       15.0741616889	      634.8103298742	       -0.6620917795	        0.4582151454	        1.7937539545	
        0.0060003687	        8.4569150610	      614.3260313400	      -41.6624692537	       -0.7000000000	       -0.0180000000	        0.5600000000	       -0.3361697310	        3.8797050643	        0.5662288780	       -0.7000000000	       -0.0180000000	       -0.5600000000	      281.5851490393	       14.8817808362	      636.2559766522	       -0.6758169886	        0.4622003775	        1.8407308913	
        0.0080001051	        9.0072960151	      616.6601976883	      -41.6615147573	       -0.7000000000	       -0.0180000000	        0.5600000000	       -0.3376207009	        3.9057469799	        0.5593431325	       -0.7000000000	       -0.0180000000	       -0.5600000000	      282.7129692144	       14.7042452179	      637.7612916612	       -0.6882975466	        0.4672474032	        1.8813519780	
        0.0100004014	        9.5653723584	      619.0446678917	      -41.6759949461	       -0.7000000000	       -0.0180000000	        0.5600000000	       -0.3385652458	        3.9342127067	        0.5521179961	       -0.7000000000	       -0.0180000000	       -0.5600000000	      283.8629309167	       14.5413286275	      639.3094084599	       -0.6994394209	        0.4737987060	        1.9146698034	
        0.0120000977	       10.1341616176	      621.4660684652	      -41.7058715054	       -0.7000000000	       -0.0180000000	        0.5600000000	       -0.3392176879	        3.9647945154	        0.5443511487	       -0.7000000000	       -0.0180000000	       -0.5600000000	      285.0286892149	       14.3917287976	      640.8846830689	       -0.7091831981	        0.4820408204	        1.9396486589	
        0.0140004340	       10.7164465020	      623.9115415797	      -41.7507947708	       -0.7000000000	       -0.0180000000	        0.5600000000	       -0.3392698613	        3.9972834495	        0.5360763920	       -0.7000000000	       -0.0180000000	       -0.5600000000	      286.2040691061	       14.2531372138	      642.4726505257	       -0.7175002457	        0.4919750716	        1.9559059588	
        0.0160001303	       11.3141818801	      626.3683972375	      -41.8102776074	       -0.7000000000	       -0.0180000000	        0.5600000000	       -0.3379525774	        4.0319666904	        0.5277100130	       -0.7000000000	       -0.0180000000	       -0.5600000000	      287.3830937607	       14.1231696663	      644.0592876109	       -0.7245417382	        0.5031929857	        1.9643275595	
        0.0180005066	       11.9281897118	      628.8240179996	      -41.8835798807	       -0.7000000000	       -0.0180000000	        0.5600000000	       -0.3344109652	        4.0694850674	        0.5199123934	       -0.7000000000	       -0.0180000000	       -0.5600000000	      288.5599450453	       14.0002509013	      645.6304772793	       -0.7305918952	        0.5148922827	        1.9666934502	
        0.0200001629	       12.5583828536	      631.2660637062	      -41.9695666177	       -0.7000000000	       -0.0180000000	        0.5600000000	       -0.3281562336	        4.1101895050	        0.5132823881	       -0.7000000000	       -0.0180000000	       -0.5600000000	      289.7289996527	       13.8833244156	      647.1721085067	       -0.7358124669	        0.5260997687	        1.9645258728	
        0.0220004592	       13.2044844496	      633.6829013201	      -42.0666088943	       -0.7000000000	       -0.0180000000	        0.5600000000	       -0.3193131273	        4.1537852664	        0.5084358345	       -0.7000000000	       -0.0180000000	       -0.5600000000	      290.8849410032	       13.7707501901	      648.6708205271	       -0.7401915838	        0.5356139478	        1.9584214457	
        0.0240002756	       13.8668410517	      636.0640870385	      -42.1727208214	       -0.7000000000	       -0.0180000000	        0.5600000000	       -0.3084508666	        4.1993539472	        0.5060251758	       -0.7000000000	       -0.0180000000	       -0.5600000000	      292.0229476721	       13.6598967567	      650.1150003456	       -0.7435944589	        0.5421848096	        1.9479885858	
        0.0260006518	       14.5469200533	      638.4007869405	      -42.2859245320	       -0.7000000000	       -0.0180000000	        0.5600000000	       -0.2961085942	        4.2456568312	        0.5067554919	       -0.7000000000	       -0.0180000000	       -0.5600000000	      293.1389574739	       13.5474814293	      651.4954804800	       -0.7458612876	        0.5447024433	        1.9324457373	
        0.0280002281	       15.2471544976	      640.6859186056	      -42.4042782487	       -0.7000000000	       -0.0180000000	        0.5600000000	       -0.2824229303	        4.2916645387	        0.5113441255	       -0.7000000000	       -0.0180000000	       -0.5600000000	      294.2297216317	       13.4300356515	      652.8055247015	       -0.7469226878	        0.5422844726	        1.9116746109	
        0.0300005645	       15.9701866322	      642.9137098313	      -42.5257366608	       -0.7000000000	       -0.0180000000	        0.5600000000	       -0.2671178071	        4.3369152268	        0.5200306715	       -0.7000000000	       -0.0180000000	       -0.5600000000	      295.2926494953	       13.3045238943	      654.0400208539	       -0.7467766466	        0.5347069722	        1.8867347982	
        0.0320002607	       16.7180405360	      645.0791943638	      -42.6481046320	       -0.7000000000	       -0.0180000000	        0.5600000000	       -0.2498047723	        4.3816095007	        0.5323417069	       -0.7000000000	       -0.0180000000	       -0.5600000000	      296.3257108075	       13.1685158946	      655.1946569383	       -0.7455412722	        0.5225035262	        1.8597423994	
        0.0340005971	       17.4916603146	      647.1783141300	      -42.7688809514	       -0.7000000000	       -0.0180000000	        0.5600000000	       -0.2303441915	        4.4262818450	        0.5471862761	       -0.7000000000	       -0.0180000000	       -0.5600000000	      297.3274231093	       13.0196314470	      656.2659737954	       -0.7434697990	        0.5067680032	        1.8331529392	
        0.0360002934	       18.2910043762	      649.2083636697	      -42.8852085331	       -0.7000000000	       -0.0180000000	        0.5600000000	       -0.2090266295	        4.4710703788	        0.5629034420	       -0.7000000000	       -0.0180000000	       -0.5600000000	      298.2969293627	       12.8549882110	      657.2520642090	       -0.7407374103	        0.4891444254	        1.8086675043	
        0.0380006695	       19.1156253301	      651.1683304090	      -42.9939062040	       -0.7000000000	       -0.0180000000	        0.5600000000	       -0.1865339804	        4.5154319540	        0.5777051177	       -0.7000000000	       -0.0180000000	       -0.5600000000	      299.2340914689	       12.6710532543	      658.1531722262	       -0.7374093601	        0.4714480555	        1.7869676068	
        0.0400002859	       19.9653642990	      653.0589300235	      -43.0914948231	       -0.7000000000	       -0.0180000000	        0.5600000000	       -0.1637324789	        4.5585236038	        0.5901091055	       -0.7000000000	       -0.0180000000	       -0.5600000000	      300.1394938577	       12.4642817413	      658.9717772917	       -0.7335886951	        0.4552852359	        1.7683499094	
        0.0420006621	       20.8407937085	      654.8823059036	      -43.1744029258	       -0.7000000000	       -0.0180000000	        0.5600000000	       -0.1413944424	        4.5997178632	        0.5990034328	       -0.7000000000	       -0.0180000000	       -0.5600000000	      301.0144117236	       12.2319370897	      659.7120998462	       -0.7294954014	        0.4420264539	        1.7534960043	
        0.0440003586	       21.7431278102	      656.6416117363	      -43.2389542733	       -0.7000000000	       -0.0180000000	        0.5600000000	       -0.1200616134	        4.6389386082	        0.6037408808	       -0.7000000000	       -0.0180000000	       -0.5600000000	      301.8606323442	       11.9716413287	      660.3792848996	       -0.7255246286	        0.4326312673	        1.7439855369	
        0.0460006947	       22.6736011432	      658.3405951809	      -43.2811750559	       -0.7000000000	       -0.0180000000	        0.5600000000	       -0.1001485117	        4.6765515420	        0.6040183297	       -0.7000000000	       -0.0180000000	       -0.5600000000	      302.6801668389	       11.6805421175	      660.9786502759	       -0.7221472389	        0.4276486500	        1.7419846507	
        0.0480003910	       23.6327910951	      659.9834211477	      -43.2969528718	       -0.7000000000	       -0.0180000000	        0.5600000000	       -0.0821253175	        4.7129560335	        0.5998255606	       -0.7000000000	       -0.0180000000	       -0.5600000000	      303.4751694114	       11.3554863430	      661.5154677967	       -0.7197809018	        0.4272255403	        1.7493880557	
        0.0500007273	       24.6202942920	      661.5748989058	      -43.2823450956	       -0.7000000000	       -0.0180000000	        0.5600000000	       -0.0665652655	        4.7481614732	        0.5917771361	       -0.7000000000	       -0.0180000000	       -0.5600000000	      304.2479963719	       10.9936772070	      661.9953907872	       -0.7187836431	        0.4307918226	        1.7670466022	
        0.0520004236	       25.6348264001	      663.1205835896	      -43.2339746819	       -0.7000000000	       -0.0180000000	        0.5600000000	       -0.0539975424	        4.7814158809	        0.5811164435	       -0.7000000000	       -0.0180000000	       -0.5600000000	      305.0012077941	       10.5934444317	      662.4248255172	       -0.7193205546	        0.4371331072	        1.7942668842	
        0.0540007600	       26.6746364717	      664.6264874988	      -43.1494831163	       -0.7000000000	       -0.0180000000	        0.5600000000	       -0.0447211956	        4.8113802233	        0.5695023172	       -0.7000000000	       -0.0180000000	       -0.5600000000	      305.7375067532	       10.1546108112	      662.8107243106	       -0.7213203050	        0.4446667029	        1.8292471217	
        0.0560005363	       27.7379309267	      666.0987421559	      -43.0276636021	       -0.7000000000	       -0.0180000000	        0.5600000000	       -0.0387391477	        4.8368729582	        0.5587748837	       -0.7000000000	       -0.0180000000	       -0.5600000000	      306.4595956348	        9.6780368117	      663.1601046731	       -0.7246769826	        0.4516383251	        1.8701959244	
        0.0580007525	       28.8230700283	      667.5433555276	      -42.8685335692	       -0.7000000000	       -0.0180000000	        0.5600000000	       -0.0358104195	        4.8574368029	        0.5503902947	       -0.7000000000	       -0.0180000000	       -0.5600000000	      307.1700695894	        9.1653378167	      663.4796828340	       -0.7293368020	        0.4566178529	        1.9160344270	
